<svg xmlns="http://www.w3.org/2000/svg" viewBox="0 0 64 64" width="64" height="64">
  <defs>
    <linearGradient id="g1" x1="0" x2="0" y1="1" y2="0"><stop offset="0%" stop-color="#7C2D12"/><stop offset="50%" stop-color="#F59E0B"/><stop offset="100%" stop-color="#FEF3C7"/></linearGradient>
    <radialGradient id="g2" cx="50%" cy="40%" r="60%"><stop offset="0%" stop-color="#7C2D12"/><stop offset="50%" stop-color="#F59E0B"/><stop offset="100%" stop-color="#FEF3C7"/></radialGradient>
  </defs>
  <path d="M32 12 C 22 12, 16 22, 18 32 C 12 32, 12 44, 22 46 C 24 54, 32 54, 32 54 C 32 54, 40 54, 42 46 C 52 44, 52 32, 46 32 C 48 22, 42 12, 32 12 Z M 26 30 L 28 32 M 36 30 L 38 32 M 28 40 L 32 42 L 36 40" fill="url(#g2)" stroke="#0F172A" stroke-width="1.2" stroke-linejoin="round"/>
  
</svg>
