<svg xmlns="http://www.w3.org/2000/svg" viewBox="0 0 64 64" width="64" height="64">
  <defs>
    <radialGradient id="wof-hub" cx="50%" cy="50%" r="50%">
      <stop offset="0%" stop-color="#FFD54F"/>
      <stop offset="100%" stop-color="#E65100"/>
    </radialGradient>
    <linearGradient id="wof-flame" x1="0" x2="0" y1="1" y2="0">
      <stop offset="0%" stop-color="#D32F2F"/>
      <stop offset="100%" stop-color="#FFEA00"/>
    </linearGradient>
  </defs>
  <g fill="url(#wof-flame)">
    <path d="M32 4 C 28 8, 30 12, 32 14 C 34 12, 36 8, 32 4 Z"/>
    <path d="M60 32 C 56 28, 52 30, 50 32 C 52 34, 56 36, 60 32 Z"/>
    <path d="M32 60 C 28 56, 30 52, 32 50 C 34 52, 36 56, 32 60 Z"/>
    <path d="M4 32 C 8 28, 12 30, 14 32 C 12 34, 8 36, 4 32 Z"/>
  </g>
  <circle cx="32" cy="32" r="18" fill="none" stroke="#7C1F23" stroke-width="2.5"/>
  <circle cx="32" cy="32" r="14" fill="url(#wof-hub)" stroke="#E63946" stroke-width="1"/>
  <g stroke="#7C1F23" stroke-width="2" fill="none" stroke-linecap="round">
    <line x1="32" y1="18" x2="32" y2="46"/>
    <line x1="18" y1="32" x2="46" y2="32"/>
    <line x1="22" y1="22" x2="42" y2="42"/>
    <line x1="42" y1="22" x2="22" y2="42"/>
  </g>
  <circle cx="32" cy="32" r="4" fill="#FFEA00" stroke="#7C1F23" stroke-width="1.5"/>
</svg>
