<svg xmlns="http://www.w3.org/2000/svg" viewBox="0 0 256 192" width="256" height="192" role="img" aria-label="Lava Phoenix template preview">
  <defs>
    <linearGradient id="bg" x1="0" x2="0" y1="0" y2="1">
      <stop offset="0%" stop-color="#1a0000"/>
      <stop offset="100%" stop-color="#0c1117"/>
    </linearGradient>
  </defs>
  <rect width="256" height="192" fill="url(#bg)"/>
  <g stroke="#22d3ee" stroke-width="1" fill="#1a0000" opacity="0.85">
    <rect x="14" y="42" width="108" height="108" rx="6"/>
    <rect x="134" y="42" width="108" height="108" rx="6"/>
  </g>
  <g fill="#ff4500">
    <polygon points="68,68 78,84 95,84 81,94 87,110 68,100 49,110 55,94 41,84 58,84"/>
  </g>
  <g fill="#ffd700">
    <polygon points="188,96 196,80 204,96 220,96 208,108 212,128 188,116 164,128 168,108 156,96 172,96"/>
  </g>
  <text x="128" y="170" text-anchor="middle" fill="#22d3ee" font-family="monospace" font-size="11">LAVA PHOENIX</text>
  <text x="128" y="28" text-anchor="middle" fill="#ff4500" font-family="monospace" font-size="10">DUAL-GRID | M7 | RTP 95.2</text>
</svg>
