<svg xmlns="http://www.w3.org/2000/svg" viewBox="0 0 256 192" width="256" height="192" role="img" aria-label="Solar Princess template preview">
  <defs>
    <linearGradient id="bg" x1="0" x2="0" y1="0" y2="1">
      <stop offset="0%" stop-color="#0c1117"/>
      <stop offset="100%" stop-color="#220033"/>
    </linearGradient>
  </defs>
  <rect width="256" height="192" fill="url(#bg)"/>
  <g stroke="#22d3ee" stroke-width="1" fill="#0c1117" opacity="0.85">
    <rect x="20" y="36" width="216" height="120" rx="6"/>
  </g>
  <g fill="#ff8c42">
    <polygon points="60,60 70,75 60,90 50,75"/>
    <polygon points="104,60 114,75 104,90 94,75"/>
    <polygon points="148,60 158,75 148,90 138,75"/>
    <polygon points="192,60 202,75 192,90 182,75"/>
    <polygon points="60,108 70,123 60,138 50,123"/>
    <polygon points="148,108 158,123 148,138 138,123"/>
  </g>
  <g fill="#ffd700" opacity="0.85">
    <circle cx="128" cy="96" r="20" stroke="#ff8c42" stroke-width="2" fill="none"/>
    <circle cx="128" cy="96" r="8"/>
  </g>
  <text x="128" y="178" text-anchor="middle" fill="#22d3ee" font-family="monospace" font-size="11">SOLAR PRINCESS</text>
  <text x="128" y="26" text-anchor="middle" fill="#ff8c42" font-family="monospace" font-size="10">5 x 4 | M4 | RTP 95.8</text>
</svg>
