<svg xmlns="http://www.w3.org/2000/svg" viewBox="0 0 256 192" width="256" height="192" role="img" aria-label="Stellar Hunter template preview">
  <defs>
    <linearGradient id="bg" x1="0" x2="0" y1="0" y2="1">
      <stop offset="0%" stop-color="#000511"/>
      <stop offset="100%" stop-color="#0c1117"/>
    </linearGradient>
  </defs>
  <rect width="256" height="192" fill="url(#bg)"/>
  <g fill="#22d3ee" opacity="0.6">
    <circle cx="36" cy="22" r="1"/><circle cx="74" cy="14" r="1"/><circle cx="118" cy="26" r="1"/><circle cx="172" cy="18" r="1"/><circle cx="218" cy="30" r="1"/>
    <circle cx="46" cy="168" r="1"/><circle cx="100" cy="176" r="1"/><circle cx="156" cy="172" r="1"/><circle cx="210" cy="180" r="1"/>
  </g>
  <g stroke="#22d3ee" stroke-width="1" fill="#000511" opacity="0.85">
    <rect x="20" y="46" width="216" height="100" rx="6"/>
  </g>
  <g fill="#7c3aed">
    <polygon points="60,72 70,84 70,100 60,112 50,100 50,84"/>
    <polygon points="104,72 114,84 114,100 104,112 94,100 94,84"/>
    <polygon points="152,72 162,84 162,100 152,112 142,100 142,84"/>
    <polygon points="196,72 206,84 206,100 196,112 186,100 186,84"/>
  </g>
  <g fill="#ffd700">
    <polygon points="128,76 132,86 142,86 134,92 138,102 128,96 118,102 122,92 114,86 124,86"/>
  </g>
  <text x="128" y="172" text-anchor="middle" fill="#22d3ee" font-family="monospace" font-size="11">STELLAR HUNTER</text>
  <text x="128" y="36" text-anchor="middle" fill="#7c3aed" font-family="monospace" font-size="10">5 x 3 | M16 | RTP 95.5</text>
</svg>
